<svg xmlns="http://www.w3.org/2000/svg" viewBox="0 0 800 600" width="800" height="600" fill="none">
  <rect width="800" height="600" rx="24" fill="#121519" stroke="rgba(255,255,255,0.08)" stroke-width="2"/>
  <rect x="30" y="30" width="740" height="80" rx="16" fill="#1A1E24"/>
  <circle cx="70" cy="70" r="20" fill="#222730"/>
  <rect x="110" y="55" width="180" height="14" rx="7" fill="#FFFFFF" opacity="0.9"/>
  <rect x="110" y="75" width="120" height="10" rx="5" fill="#8E96A4"/>
  
  <rect x="30" y="130" width="740" height="200" rx="16" fill="#181C22" stroke="rgba(255,255,255,0.05)"/>
  <rect x="60" y="160" width="140" height="140" rx="12" fill="#222832"/>
  <rect x="230" y="170" width="280" height="18" rx="6" fill="#FFFFFF"/>
  <rect x="230" y="200" width="180" height="14" rx="6" fill="#00FF87"/>
  <rect x="230" y="230" width="220" height="12" rx="6" fill="#8E96A4"/>
  
  <rect x="570" y="170" width="160" height="44" rx="22" fill="rgba(255,75,75,0.15)" stroke="rgba(255,75,75,0.4)"/>
  <text x="650" y="197" text-anchor="middle" font-family="sans-serif" font-size="14" font-weight="bold" fill="#FF5E5E">REFUND REJECTED</text>
  
  <rect x="30" y="350" width="740" height="200" rx="16" fill="rgba(0,255,135,0.04)" stroke="rgba(0,255,135,0.2)"/>
  <text x="60" y="395" font-family="sans-serif" font-size="20" font-weight="bold" fill="#00FF87">Claimo Case Shield</text>
  <text x="60" y="430" font-family="sans-serif" font-size="15" fill="#FFFFFF" opacity="0.8">Dispute packet prepared & escalation route identified.</text>
</svg>